<?xml version="1.0" standalone="no"?>
<!DOCTYPE svg PUBLIC "-//W3C//DTD SVG 20010904//EN"
 "http://www.w3.org/TR/2001/REC-SVG-20010904/DTD/svg10.dtd">
<svg version="1.0" xmlns="http://www.w3.org/2000/svg"
 width="24.000000pt" height="24.000000pt" viewBox="0 0 24.000000 24.000000"
 preserveAspectRatio="xMidYMid meet">

<g transform="translate(0.000000,24.000000) scale(0.100000,-0.100000)"
fill="#000000" stroke="none">
<path d="M110 180 l0 -50 -50 0 c-27 0 -50 -4 -50 -10 0 -5 23 -10 50 -10 l50
0 0 -50 c0 -27 5 -50 10 -50 6 0 10 23 10 50 l0 50 50 0 c28 0 50 5 50 10 0 6
-22 10 -50 10 l-50 0 0 50 c0 28 -4 50 -10 50 -5 0 -10 -22 -10 -50z"/>
</g>
</svg>
