<svg width="18" height="17" viewBox="0 0 18 17" fill="none" xmlns="http://www.w3.org/2000/svg">
<path d="M5.35804 11.0816L0.714294 11.0816L0.714294 12.233L5.35804 12.233C5.48478 12.7273 5.77096 13.1652 6.17161 13.4779C6.57226 13.7905 7.06467 13.9601 7.57144 13.9601C8.07821 13.9601 8.57061 13.7905 8.97126 13.4779C9.37191 13.1652 9.65809 12.7273 9.78483 12.233L17.8572 12.233L17.8572 11.0816L9.78483 11.0816C9.65809 10.5872 9.37191 10.1493 8.97126 9.83668C8.57061 9.52404 8.07821 9.35439 7.57144 9.35439C7.06467 9.35439 6.57226 9.52404 6.17161 9.83668C5.77096 10.1493 5.48478 10.5872 5.35804 11.0816ZM8.71429 11.6573C8.71429 11.885 8.64727 12.1076 8.52169 12.297C8.39611 12.4863 8.21762 12.6339 8.00879 12.721C7.79996 12.8082 7.57017 12.831 7.34848 12.7866C7.12678 12.7421 6.92315 12.6325 6.76332 12.4714C6.60348 12.3104 6.49464 12.1053 6.45054 11.8819C6.40644 11.6585 6.42907 11.427 6.51558 11.2166C6.60208 11.0062 6.74856 10.8264 6.9365 10.6999C7.12444 10.5734 7.3454 10.5058 7.57144 10.5058C7.87444 10.5062 8.16493 10.6276 8.37918 10.8435C8.59344 11.0593 8.71395 11.352 8.71429 11.6573Z" fill="#555555"/>
<path d="M10.5009 6.47578L0.714294 6.47578L0.714294 7.6272L10.5009 7.6272C10.6276 8.12154 10.9138 8.55944 11.3145 8.87208C11.7151 9.18472 12.2075 9.35437 12.7143 9.35437C13.2211 9.35437 13.7135 9.18472 14.1141 8.87208C14.5148 8.55944 14.801 8.12154 14.9277 7.6272L17.8572 7.6272L17.8572 6.47578L14.9277 6.47578C14.801 5.98144 14.5148 5.54354 14.1141 5.2309C13.7135 4.91827 13.2211 4.74862 12.7143 4.74862C12.2075 4.74862 11.7151 4.91827 11.3145 5.2309C10.9138 5.54354 10.6276 5.98144 10.5009 6.47578ZM13.8572 7.05149C13.8572 7.27922 13.7901 7.50184 13.6645 7.69119C13.539 7.88054 13.3605 8.02812 13.1516 8.11526C12.9428 8.20241 12.713 8.22521 12.4913 8.18079C12.2696 8.13636 12.066 8.0267 11.9062 7.86567C11.7463 7.70464 11.6375 7.49948 11.5934 7.27612C11.5493 7.05277 11.5719 6.82126 11.6584 6.61086C11.7449 6.40047 11.8914 6.22064 12.0794 6.09412C12.2673 5.9676 12.4883 5.90008 12.7143 5.90008C13.0173 5.90042 13.3078 6.02184 13.522 6.2377C13.7363 6.45356 13.8568 6.74622 13.8572 7.05149Z" fill="#555555"/>
<path d="M3.07233 1.87001L0.714294 1.87001L0.714294 3.02143L3.07233 3.02143C3.19907 3.51577 3.48525 3.95367 3.8859 4.26631C4.28655 4.57895 4.77895 4.7486 5.28572 4.7486C5.79249 4.7486 6.2849 4.57895 6.68555 4.26631C7.0862 3.95367 7.37238 3.51577 7.49912 3.02143L17.8572 3.02143L17.8572 1.87001L7.49912 1.87001C7.37238 1.37567 7.0862 0.937769 6.68555 0.625131C6.2849 0.312494 5.79249 0.142844 5.28572 0.142844C4.77895 0.142844 4.28655 0.312494 3.8859 0.625132C3.48525 0.937769 3.19907 1.37567 3.07233 1.87001ZM6.42858 2.44572C6.42858 2.67345 6.36155 2.89606 6.23597 3.08541C6.1104 3.27476 5.93191 3.42234 5.72308 3.50949C5.51425 3.59664 5.28446 3.61944 5.06276 3.57501C4.84107 3.53059 4.63743 3.42092 4.4776 3.2599C4.31777 3.09887 4.20892 2.8937 4.16483 2.67035C4.12073 2.447 4.14336 2.21549 4.22986 2.00509C4.31636 1.7947 4.46284 1.61487 4.65079 1.48835C4.83873 1.36183 5.05969 1.2943 5.28572 1.2943C5.58872 1.29465 5.87922 1.41607 6.09347 1.63192C6.30772 1.84778 6.42824 2.14045 6.42858 2.44572Z" fill="#555555"/>
</svg>
